<svg width="195" height="186" viewBox="0 0 195 186" fill="none" xmlns="http://www.w3.org/2000/svg">
<path d="M180.665 183.921C200.628 171.181 201.933 109.422 163.325 94.9654C124.717 80.5092 131.87 44.0305 99.3899 16.7623C69.7849 -8.09325 20.8048 12.9766 4.49226 77.6165C-7.14026 123.709 6.43226 181.528 15.6948 183.921H180.665Z" fill="#F8F8FD"/>
<path d="M104.87 70.9007C105.655 73.5123 106.818 79.2877 101.218 82.1357C97.7425 83.9016 91.9675 82.1606 91.4675 79.6484C90.9675 77.1363 89.625 70.8012 92.9875 68.1472C95.82 65.941 103.123 65.0779 104.87 70.9007Z" fill="#1C155B"/>
<path d="M110.135 89.8135L123.212 101.956C123.212 101.956 130.947 107.021 134.927 109.617C134.647 110.804 134.395 112.01 134.215 113.221C130.627 111.764 123 108.68 119.965 106.595C115.465 103.514 106.547 95.6164 106.547 95.6164L110.135 89.8135Z" fill="#FEECE7"/>
<path d="M109.57 132.483L109.872 132.718C109.872 132.718 109.94 132.411 109.57 132.483Z" fill="#4838D1"/>
<path d="M107.105 134.018L107.337 133.846C108.617 132.851 109.257 132.523 109.587 132.471L96.8924 122.716C96.8924 122.716 96.7149 122.865 96.3924 123.166C95.9674 123.574 95.2849 124.241 94.3924 125.029C92.4624 126.715 89.665 128.976 86.7725 131.436L107.105 134.018Z" fill="#6E62DB"/>
<path d="M102.892 134.048L118.78 132.207C118.742 129.939 118.65 128.031 118.445 126.837C117.752 122.778 109.945 115.99 109.945 115.99L97.3098 119.497L96.4273 119.637C96.4423 121.654 96.3173 123.099 96.3648 123.161C97.8223 125.114 101.757 130.071 102.152 131.011C102.29 131.314 102.545 132.421 102.892 134.048Z" fill="#948BE4"/>
<path d="M86.7349 83.5962C86.7349 83.5962 91.9324 87.8244 94.0175 87.3667L89.0399 96.2856C89.0399 96.2856 81.7699 90.61 80.8499 89.5306C80.8499 89.5306 83.9874 84.1533 86.7349 83.5962Z" fill="#F45424"/>
<path d="M94.9199 116.796C96.2149 119.641 96.3649 123.168 96.3649 123.168C99.4449 122.845 110.062 120.805 111.56 116.972C111.612 116.835 105.897 111.667 105.54 108.911C105.012 104.847 106.062 97.3176 106.212 96.8848C106.462 96.1561 109.095 98.6408 109.095 98.6408C111.01 98.024 113.93 92.1739 113.93 92.1739C113.93 92.1739 106.82 85.804 105.32 85.4732C103.82 85.1424 93.1648 87.3909 93.1573 87.3933C92.3798 87.5849 90.9073 90.0498 90.5173 90.8009C86.1423 99.387 90.9523 108.073 94.9199 116.796Z" fill="#F77A55"/>
<path d="M97.8724 82.2023C97.8724 82.2023 97.9699 86.259 98.4574 87.7613C98.9449 89.2636 99.0174 91.4922 95.7524 92.2383C92.4873 92.9845 94.0398 88.9502 94.0173 87.3783C93.9948 85.8063 93.0498 81.1328 93.0498 81.1328L97.8724 82.2023Z" fill="#FEECE7"/>
<path d="M93.4923 83.4839C93.2648 82.1979 93.0498 81.1309 93.0498 81.1309L97.8723 82.2129C97.8723 82.2129 97.8923 83.0436 97.9598 84.0908C96.1273 84.8793 94.5823 84.4789 93.4923 83.4839Z" fill="#AA2D08"/>
<path d="M97.4849 69.993C98.8314 70.4697 99.9626 71.4091 100.675 72.6419C101.82 74.679 102.292 80.4743 97.8774 82.8546C93.4624 85.2349 90.4449 81.218 90.6524 77.5219C90.8599 73.8258 92.0074 68.9533 97.4849 69.993Z" fill="#FEECE7"/>
<path d="M89.7674 76.2979C90.0649 77.2133 90.7424 77.8177 91.2674 77.6436C91.7924 77.4695 91.9974 76.5889 91.7024 75.6736C91.4074 74.7583 90.7274 74.1539 90.2024 74.3255C89.6774 74.4971 89.4724 75.3801 89.7674 76.2979Z" fill="#FEECE7"/>
<path d="M100.168 77.9471C99.7926 78.8873 100.005 79.8525 100.643 80.1037C101.28 80.3549 102.1 79.7977 102.475 78.86C102.85 77.9223 102.638 76.9572 102 76.7059C101.363 76.4547 100.54 77.0169 100.168 77.9471Z" fill="#FEECE7"/>
<path d="M101.62 66.3712C100.608 63.9212 95.7426 55.1784 101.188 52.415C106.633 49.6516 109.915 55.4918 110.325 46.06C110.705 37.3222 120.458 37.4714 122.773 43.2544C123.599 42.9029 124.499 42.7578 125.395 42.8315C128.593 43.0803 130.958 46.0252 130.683 49.3855C130.64 49.9203 130.905 50.3481 130.743 50.8306C132.263 53.1836 132.77 56.2728 131.76 59.9117C129.01 69.8609 120.703 63.0507 117.168 64.7122C113.633 66.3737 116.983 68.4431 114.528 71.7338C112.073 75.0245 109.31 75.2682 102.1 70.8633L100.263 69.5997C100.263 69.5997 102.633 68.8087 101.62 66.3712Z" fill="#1C155B"/>
<path d="M84.4675 139.448L126.445 139.622C129.105 139.639 131.664 138.614 133.569 136.768C135.475 134.921 136.572 132.403 136.625 129.757L137.797 42.3612C137.812 41.058 137.566 39.7648 137.074 38.5569C136.582 37.3489 135.854 36.2502 134.932 35.3246C134.01 34.399 132.912 33.6649 131.702 33.1649C130.492 32.6649 129.195 32.409 127.885 32.412L85.9074 32.2454C83.2479 32.2272 80.6883 33.2524 78.7832 35.0989C76.8782 36.9454 75.7812 39.4644 75.73 42.11C75.6825 45.6842 74.5824 127.496 74.5549 129.506C74.5417 130.809 74.7885 132.101 75.2809 133.308C75.7734 134.515 76.5018 135.612 77.4238 136.537C78.3459 137.462 79.4433 138.195 80.6524 138.695C81.8615 139.195 83.1582 139.45 84.4675 139.448ZM78.6825 122.741C78.7075 120.975 79.5049 61.5357 79.7674 41.9035C79.8009 40.3794 80.4355 38.9296 81.5343 37.8672C82.6331 36.8047 84.1078 36.2149 85.64 36.225L128.047 36.3991C128.803 36.3978 129.551 36.5456 130.249 36.8341C130.946 37.1227 131.579 37.5461 132.111 38.0798C132.643 38.6136 133.063 39.2471 133.347 39.9436C133.631 40.6401 133.773 41.3858 133.765 42.1373L132.68 122.974C132.65 124.501 132.017 125.954 130.917 127.019C129.818 128.084 128.342 128.675 126.807 128.665L84.4 128.489C83.6442 128.49 82.8957 128.343 82.1978 128.054C81.4999 127.766 80.8666 127.342 80.3346 126.808C79.8027 126.274 79.3827 125.64 79.0991 124.943C78.8155 124.246 78.6738 123.5 78.6825 122.748V122.741Z" fill="#1C155B"/>
<path d="M134.918 111.289C135.364 111.367 135.803 111.478 136.233 111.62L136.188 111.575L135.115 110.993C134.115 110.645 134.318 109.854 135.203 110.016C135.693 110.099 136.175 110.224 136.643 110.391C136.643 110.391 134.92 109.551 134.86 109.352C134.668 108.7 135.67 108.449 136.96 109.426C138.093 110.282 137.6 112.585 137.425 113.157C137.355 113.63 137.148 114.073 136.83 114.431L136.213 113.234C136.213 113.234 135.668 112.369 134.83 112.274C133.993 112.18 134.033 111.13 134.918 111.289Z" fill="#FEECE7"/>
<path d="M54.5423 41.0004C52.9423 40.1473 52.4173 38.0157 53.3723 36.2422C54.3273 34.4688 56.3998 33.7201 57.9998 34.5707C59.5998 35.4214 60.1248 37.5555 59.1698 39.329C58.2148 41.1024 56.1423 41.8511 54.5423 41.0004Z" fill="#1C155B"/>
<path d="M81.878 50.1202L80.6981 52.3129C80.434 52.8038 79.9848 53.1701 79.4492 53.3314C78.9136 53.4927 78.3355 53.4357 77.8421 53.173L75.5741 51.9651L78.7455 46.0711L81.0135 47.2789C81.2578 47.409 81.474 47.5857 81.6496 47.7989C81.8253 48.0121 81.957 48.2576 82.0373 48.5214C82.1176 48.7853 82.1448 49.0622 82.1175 49.3366C82.0901 49.6109 82.0088 49.8772 81.878 50.1202Z" fill="#1C155B"/>
<path d="M66.6673 58.1534C67.1498 57.3898 68.5548 56.4346 69.3048 56.1138C70.0548 55.7929 73.4298 54.6911 74.1323 55.3676C74.8348 56.0441 72.0498 59.4766 72.1748 60.4889C72.2998 61.5012 79.4098 75.5244 81.0248 78.243C81.8198 79.5836 83.9423 81.9067 85.8898 83.9164C84.3098 84.7248 82.7198 86.7469 81.7598 88.1448C78.9423 85.1103 75.9398 81.6456 75.1098 79.8274C73.4298 76.1363 66.1823 58.9145 66.6673 58.1534Z" fill="#FEECE7"/>
<path d="M64.845 56.9566L73.6825 49.0674L76.155 51.5023L68.79 59.5756C68.6527 59.7269 68.4693 59.8292 68.2679 59.8669C68.0665 59.9047 67.8583 59.8757 67.675 59.7845L65.055 58.4912C64.9174 58.4234 64.7985 58.323 64.7089 58.1989C64.6192 58.0748 64.5615 57.9308 64.5408 57.7794C64.5201 57.6279 64.537 57.4738 64.59 57.3304C64.6431 57.1869 64.7306 57.0586 64.845 56.9566Z" fill="#6E62DB"/>
<path d="M58.3198 47.7015C62.0889 47.2336 65.9111 47.9401 69.2598 49.7237L76.1873 53.4124L77.8123 51.6712C78.8 50.6172 79.4945 49.3253 79.8273 47.9229L80.3773 45.6171L73.4398 41.9458C70.0933 40.1617 67.3855 37.3886 65.6898 34.0088L62.6448 27.9497L51.5698 48.5422L58.3198 47.7015Z" fill="#F77A55"/>
<path d="M62.295 43.5275C60.3475 43.1345 55.61 45.2861 52.4574 46.8804L51.5649 48.542L58.315 47.7012C62.0841 47.2333 65.9063 47.9399 69.255 49.7234L76.1825 53.4121L77.8075 51.671C78.7952 50.617 79.4897 49.3251 79.8226 47.9226L80.3726 45.6169C80.3726 45.6169 78.3725 48.5619 76.0225 49.2658C73.6725 49.9697 65.32 44.1394 62.295 43.5275Z" fill="#F45424"/>
<path d="M49.4324 48.4902L61.3574 26.3257C61.4165 26.216 61.4967 26.1188 61.5935 26.0399C61.6903 25.961 61.8018 25.9018 61.9216 25.8658C62.0414 25.8297 62.1672 25.8175 62.2917 25.8299C62.4163 25.8422 62.5371 25.8789 62.6474 25.9377C62.8698 26.0569 63.0357 26.2588 63.1088 26.4993C63.1819 26.7399 63.1562 26.9994 63.0374 27.2212L51.1124 49.3856C50.9927 49.6069 50.7897 49.7719 50.548 49.8446C50.3062 49.9173 50.0453 49.8918 49.8224 49.7736C49.7121 49.7149 49.6145 49.635 49.5351 49.5387C49.4558 49.4424 49.3963 49.3315 49.3601 49.2123C49.3239 49.0931 49.3116 48.968 49.324 48.8441C49.3364 48.7202 49.3733 48.5999 49.4324 48.4902Z" fill="white"/>
<path d="M71.4424 56.6678C72.7874 55.0935 73.5049 54.2504 73.8974 53.9097L73.7824 53.1487C73.8549 52.0271 74.5324 52.5866 74.7399 52.7707C74.7399 52.7707 75.1924 54.0291 75.0974 54.2256C75.0974 54.2256 74.1124 56.3022 73.6674 57.1105C73.4474 57.5109 72.7024 58.6649 72.7024 58.6649L71.4424 56.6678Z" fill="#FEECE7"/>
<path d="M69.4272 52.3698C70.3047 52.8175 70.4472 56.208 70.1222 56.5612C69.7972 56.9144 68.8447 54.3772 68.5522 54.5712C68.3247 54.718 69.8022 56.7079 69.3397 56.9194C69.0172 57.0661 67.6972 55.6234 67.4872 55.7129C67.1597 55.8547 68.4872 57.3497 68.0897 57.479C67.6297 57.6283 65.5697 56.0537 65.5447 55.9518C65.5197 55.8498 65.6922 55.2478 66.7072 54.4593C67.1425 54.1154 67.5436 53.7305 67.9047 53.31C68.2272 52.9618 68.9422 52.1235 69.4272 52.3698Z" fill="#FEECE7"/>
<path d="M166.855 75.7884L164.81 74.2461L162.375 75.0496C162.313 75.0694 162.246 75.0717 162.182 75.0562C162.119 75.0406 162.061 75.0079 162.014 74.9615C161.968 74.9151 161.936 74.857 161.921 74.7936C161.906 74.7301 161.909 74.6637 161.93 74.6019L162.773 72.189L161.255 70.1344C161.216 70.0817 161.192 70.0192 161.187 69.9539C161.181 69.8885 161.195 69.823 161.225 69.7647C161.255 69.7064 161.301 69.6577 161.358 69.6241C161.414 69.5906 161.479 69.5734 161.545 69.5747L164.11 69.627L165.61 67.5549C165.648 67.5014 165.701 67.4596 165.762 67.4343C165.823 67.409 165.889 67.4012 165.954 67.4119C166.02 67.4225 166.08 67.4511 166.13 67.4944C166.18 67.5377 166.216 67.594 166.235 67.6569L166.985 70.0996L169.43 70.8757C169.493 70.8958 169.548 70.9329 169.591 70.9828C169.633 71.0327 169.661 71.0934 169.67 71.158C169.68 71.2227 169.671 71.2887 169.645 71.3487C169.619 71.4087 169.577 71.4603 169.523 71.4975L167.418 72.9552L167.433 75.5073C167.435 75.5748 167.417 75.6415 167.382 75.6994C167.347 75.7573 167.296 75.8039 167.235 75.8336C167.174 75.8633 167.106 75.8748 167.038 75.8668C166.971 75.8588 166.907 75.8315 166.855 75.7884Z" fill="#F77A55"/>
<path d="M109.57 24.9879L107.523 23.4432L105.083 24.2467C105.02 24.2668 104.953 24.2692 104.889 24.2535C104.825 24.2379 104.767 24.2049 104.72 24.1582C104.674 24.1115 104.642 24.0529 104.627 23.989C104.613 23.9251 104.616 23.8585 104.638 23.7964L105.483 21.3836L103.96 19.3215C103.922 19.2684 103.899 19.2058 103.894 19.1406C103.889 19.0753 103.903 19.0101 103.933 18.952C103.963 18.894 104.009 18.8455 104.066 18.8119C104.122 18.7783 104.187 18.761 104.253 18.7618L106.82 18.814L108.32 16.7395C108.358 16.686 108.411 16.6442 108.472 16.6189C108.533 16.5936 108.599 16.5858 108.665 16.5964C108.73 16.607 108.79 16.6356 108.84 16.679C108.89 16.7223 108.926 16.7786 108.945 16.8415L109.695 19.2891L112.143 20.0652C112.205 20.0854 112.261 20.1225 112.303 20.1723C112.346 20.2222 112.373 20.2829 112.383 20.3476C112.392 20.4123 112.384 20.4783 112.358 20.5383C112.331 20.5983 112.289 20.6498 112.235 20.6871L110.128 22.1497L110.143 24.7044C110.143 24.7708 110.125 24.8361 110.091 24.8929C110.056 24.9496 110.006 24.9954 109.946 25.025C109.886 25.0546 109.819 25.0668 109.753 25.0603C109.686 25.0537 109.623 25.0287 109.57 24.9879Z" fill="#948BE4"/>
<path d="M58.3598 98.3649L56.1297 96.2034L53.0697 96.8078C52.9914 96.8227 52.9105 96.8156 52.836 96.7874C52.7615 96.7591 52.6963 96.7108 52.6478 96.6478C52.5994 96.5849 52.5694 96.5097 52.5613 96.4308C52.5533 96.3519 52.5675 96.2723 52.6022 96.2009L53.9797 93.4226L52.4572 90.7188C52.418 90.6495 52.3992 90.5706 52.4028 90.4912C52.4064 90.4117 52.4323 90.3348 52.4776 90.2693C52.5229 90.2038 52.5858 90.1522 52.6591 90.1204C52.7324 90.0886 52.8131 90.0779 52.8922 90.0896L55.9747 90.5323L58.0873 88.2589C58.1417 88.2008 58.2113 88.159 58.2883 88.1381C58.3653 88.1172 58.4466 88.1181 58.5232 88.1405C58.5997 88.163 58.6684 88.2062 58.7217 88.2653C58.775 88.3244 58.8107 88.3971 58.8248 88.4753L59.3523 91.5272L62.1798 92.8256C62.2525 92.8588 62.3144 92.9115 62.3585 92.9779C62.4025 93.0443 62.427 93.1217 62.4291 93.2012C62.4311 93.2808 62.4108 93.3593 62.3702 93.4279C62.3297 93.4965 62.2706 93.5524 62.1998 93.5892L59.4498 95.0319L59.0848 98.1087C59.075 98.1876 59.0434 98.2623 58.9935 98.3243C58.9435 98.3863 58.8772 98.4332 58.8019 98.4598C58.7266 98.4864 58.6453 98.4916 58.5673 98.4749C58.4892 98.4581 58.4173 98.42 58.3598 98.3649Z" fill="#F77A55"/>
<path d="M71.9124 12.6854C71.8735 12.187 72.033 11.6932 72.3567 11.3107C72.6803 10.9282 73.142 10.6877 73.6423 10.6409C74.7148 10.5538 75.5023 11.2527 75.6423 12.3273C75.7823 13.4018 75.1223 14.2898 73.9998 14.4142C73.7463 14.4514 73.4877 14.435 73.2409 14.3661C72.9942 14.2971 72.7648 14.1771 72.5678 14.014C72.3708 13.8509 72.2106 13.6482 72.0977 13.4193C71.9847 13.1903 71.9216 12.9403 71.9124 12.6854ZM72.2824 9.74044L70.9699 1.6516C70.9439 1.49307 70.9506 1.33091 70.9896 1.17504C71.0286 1.01916 71.0992 0.87286 71.197 0.74505C71.2948 0.61724 71.4178 0.510607 71.5584 0.431688C71.6991 0.352768 71.8544 0.303219 72.0149 0.286051L72.8349 0.196511C72.995 0.179039 73.157 0.194088 73.3111 0.24075C73.4652 0.287411 73.6081 0.364715 73.7313 0.467972C73.8545 0.571229 73.9553 0.698281 74.0277 0.841453C74.1001 0.984624 74.1425 1.14093 74.1523 1.30089L74.6523 9.48424L72.2824 9.74044Z" fill="#6E62DB"/>
<path d="M133.438 5.41466C133.588 5.05412 133.819 4.7324 134.113 4.47385C134.407 4.2153 134.757 4.02669 135.135 3.92231C136.3 3.59399 137.385 4.33767 137.703 5.46937C138.075 6.78015 137.423 8.63813 134.968 10.7871C131.743 10.2424 130.218 9.00126 129.833 7.69297C129.51 6.56127 130.035 5.36242 131.2 5.0341C131.578 4.92435 131.975 4.90158 132.363 4.96752C132.751 5.03345 133.118 5.18637 133.438 5.41466Z" fill="#F77A55"/>
<path d="M147.645 54.9619C147.914 54.7495 148.227 54.6011 148.562 54.5278C148.897 54.4545 149.244 54.4583 149.578 54.5391C150.603 54.7878 151.105 55.8051 150.865 56.8025C150.59 57.9541 149.298 59.0909 146.515 59.6829C144.298 57.9044 143.663 56.3125 143.938 55.1584C144.188 54.1635 145.088 53.4745 146.113 53.7182C146.446 53.7957 146.758 53.948 147.024 54.1636C147.289 54.3791 147.502 54.6521 147.645 54.9619Z" fill="#948BE4"/>
<path d="M39.3697 31.0247L14.4222 30.9998C12.7097 30.9998 11.3222 29.2437 11.3272 27.0822L11.3446 16.767C11.3446 14.608 12.7397 12.8569 14.4522 12.8594L39.3997 12.8842C41.1122 12.8842 42.4997 14.6403 42.4947 16.8019L42.4772 27.117C42.4747 29.2785 41.0822 31.0271 39.3697 31.0247Z" fill="#948BE4"/>
<path d="M22.2123 22.6739C22.2123 23.0468 22.1011 23.4113 21.8929 23.7213C21.6847 24.0313 21.3887 24.273 21.0425 24.4157C20.6962 24.5584 20.3152 24.5957 19.9476 24.523C19.58 24.4502 19.2424 24.2707 18.9774 24.007C18.7124 23.7433 18.5319 23.4074 18.4588 23.0417C18.3857 22.676 18.4232 22.2969 18.5666 21.9524C18.71 21.6079 18.9529 21.3135 19.2645 21.1063C19.5762 20.8991 19.9425 20.7886 20.3173 20.7886C20.5663 20.7882 20.8128 20.8368 21.0429 20.9314C21.2729 21.026 21.482 21.1649 21.658 21.34C21.834 21.5152 21.9736 21.7231 22.0687 21.952C22.1638 22.1809 22.2126 22.4262 22.2123 22.6739Z" fill="white"/>
<path d="M28.8047 22.6739C28.8047 23.0469 28.6935 23.4115 28.4851 23.7216C28.2768 24.0317 27.9807 24.2733 27.6343 24.4159C27.2879 24.5586 26.9067 24.5957 26.5391 24.5228C26.1714 24.4498 25.8337 24.27 25.5688 24.0061C25.3039 23.7422 25.1236 23.406 25.0508 23.0402C24.9779 22.6743 25.0158 22.2951 25.1596 21.9507C25.3034 21.6062 25.5467 21.312 25.8587 21.1051C26.1706 20.8982 26.5373 20.7881 26.9122 20.7886C27.1609 20.7886 27.4072 20.8374 27.637 20.9321C27.8668 21.0269 28.0755 21.1658 28.2513 21.3409C28.427 21.516 28.5664 21.7239 28.6613 21.9526C28.7563 22.1813 28.805 22.4264 28.8047 22.6739Z" fill="white"/>
<path d="M35.3975 22.6739C35.3975 23.0469 35.2863 23.4115 35.0779 23.7216C34.8696 24.0317 34.5735 24.2733 34.2271 24.4159C33.8806 24.5586 33.4995 24.5957 33.1318 24.5228C32.7642 24.4498 32.4265 24.27 32.1616 24.0061C31.8966 23.7422 31.7164 23.406 31.6435 23.0402C31.5707 22.6743 31.6086 22.2951 31.7524 21.9507C31.8962 21.6062 32.1395 21.312 32.4514 21.1051C32.7634 20.8982 33.13 20.7881 33.5049 20.7886C33.7537 20.7886 34 20.8374 34.2298 20.9321C34.4595 21.0269 34.6683 21.1658 34.844 21.3409C35.0198 21.516 35.1592 21.7239 35.2541 21.9526C35.3491 22.1813 35.3978 22.4264 35.3975 22.6739Z" fill="white"/>
<path d="M42.245 22.6743L48.09 29.9644L41.6899 27.6587L42.245 22.6743Z" fill="#948BE4"/>
<path d="M40.7848 70.0146L37.1398 70.3256L37.2097 73.716L33.6347 74.1811L33.2972 77.4272L30.6797 78.2133L31.0772 79.5316L34.5797 78.4819L34.8972 75.405L38.6173 74.9224L38.5498 71.5867L41.8523 71.3032L40.7848 70.0146Z" fill="#6E62DB"/>
<path d="M150.5 25.3333L150.777 28.9596L154.185 28.9273L154.615 32.489L157.878 32.8546L158.638 35.4686L159.968 35.0856L158.95 31.5911L155.86 31.2429L155.41 27.537L152.058 27.5693L151.807 24.2837L150.5 25.3333Z" fill="#6E62DB"/>
<path d="M39.5848 48.045L37.4223 50.169L33.6048 47.0825L30.0598 49.8009L26.8223 47.9555L25.8848 49.587L30.2123 52.0517L33.5748 49.4776L37.5448 52.6859L40.7998 49.4925L39.5848 48.045Z" fill="#F77A55"/>
<path d="M29.0497 141.582C29.0497 141.582 28.9447 141.084 28.9247 140.905C28.9047 140.726 28.8698 140.097 28.8698 140.097C28.8698 140.097 28.8698 137.978 29.0273 137.99C29.1848 138.003 29.3898 138.368 29.4348 138.488C29.4798 138.607 29.5472 138.766 29.5947 138.898C29.607 138.931 29.6257 138.962 29.6498 138.988C29.674 139.014 29.703 139.035 29.7353 139.049C29.7676 139.064 29.8025 139.072 29.838 139.074C29.8735 139.075 29.9089 139.069 29.9423 139.057C30.1098 139.012 30.0398 138.45 29.9773 138.261C29.7798 137.672 28.9373 136.202 28.8548 136.043C28.7723 135.883 29.4347 132.18 29.5672 130.902C29.8472 128.817 30.2373 126.688 30.2698 126.467L33.9998 118.259L31.4997 115.729C31.4997 115.729 27.2397 124.79 27.0697 125.27C26.9922 125.497 26.7247 130.377 26.7247 130.379C26.7447 132.789 26.7672 134.916 26.7597 135.324C26.7597 135.324 26.4098 136.54 26.1398 137.301C25.8697 138.062 25.9297 138.871 25.8897 139.094C25.7684 139.674 25.7464 140.271 25.8247 140.858C25.9372 141.689 26.2147 140.845 26.2147 140.845C26.2147 140.845 26.2872 139.269 26.4122 139.293C26.5372 139.318 26.4122 140.174 26.5322 141.092L26.6197 141.776C26.6972 142.338 27.0697 142.447 27.0822 141.845C27.0915 141.573 27.0815 141.3 27.0522 141.03C27.0364 140.773 27.0422 140.516 27.0697 140.261C27.0611 139.997 27.0678 139.733 27.0897 139.47C27.1147 139.485 27.1822 139.393 27.2222 139.642C27.2672 139.943 27.2222 140.604 27.3297 141.039C27.3872 141.288 27.4798 141.811 27.4798 141.811C27.5544 142.095 27.6522 142.373 27.7722 142.641C28.0497 142.641 28.0472 141.985 27.9247 141.659C27.9246 141.39 27.8962 141.123 27.8398 140.86C27.8398 140.86 27.8672 139.699 28.0347 139.699C28.2022 139.699 28.6497 142.487 28.9272 142.457C29.1547 142.432 29.0497 141.582 29.0497 141.582Z" fill="#F9A085"/>
<path d="M32.4824 123.032C31.6802 122.896 30.8884 122.706 30.1124 122.462C29.0174 122.057 28.2974 121.701 28.2974 121.701C28.2974 121.701 29.4999 116.58 30.9998 113.471C31.6198 112.185 32.2499 111.565 33.1223 111.416C33.1223 111.416 34.9648 112.622 34.8923 115.525C34.8748 116.199 32.4824 123.032 32.4824 123.032Z" fill="white"/>
<path d="M37.2449 140.233L39.2449 158.605C39.2449 158.605 38.2649 162.49 38.3824 163.594C38.4999 164.698 40.5649 179.177 40.5649 179.177L40.4774 179.99V182.388H48.1349C46.7884 181.734 45.4865 180.993 44.2374 180.169C44.0531 180.034 43.8998 179.862 43.7877 179.663C43.6757 179.465 43.6074 179.245 43.5874 179.018C42.9799 174.556 44.1799 159.669 44.1799 159.669L45.1274 140.293L37.2449 140.233Z" fill="#F9A085"/>
<path d="M31.0898 144.097C30.6573 144.212 29.9923 160.016 29.6348 160.707C27.3623 165.147 26.8223 178.64 26.8223 178.64L26.1623 180.563L25.4573 182.918C25.4573 182.918 27.7248 183.538 28.9123 182.864L28.7823 180.541L28.6598 178.417L34.3898 161.605L37.5248 144.455L31.0898 144.097Z" fill="#F9A085"/>
<path d="M42.4847 113.497C41.5597 112.201 37.7472 108.455 37.3247 108.463C36.0897 108.485 32.0347 108.485 31.2422 108.898V109.781C31.2616 113.726 31.7738 117.653 32.7672 121.472C33.4647 124.133 34.1222 126.977 34.0422 127.999L34.0597 128.016C34.6035 128.564 35.2574 128.992 35.9786 129.271C36.6999 129.551 37.4723 129.675 38.2453 129.637C39.0183 129.599 39.7746 129.399 40.4646 129.051C41.1547 128.702 41.763 128.212 42.2497 127.613C42.2549 125.805 42.3617 123.999 42.5697 122.203C43.0922 118.164 44.7797 116.711 42.4847 113.497Z" fill="#F77A55"/>
<path d="M36.0822 104.447C36.0822 104.447 36.1872 107.078 35.9572 108.076C35.7272 109.073 35.4197 109.15 37.3997 109.453C38.1797 109.573 38.9297 109.752 38.9297 109.752C38.9297 109.752 38.7272 108.284 38.6947 107.668C38.6447 106.648 38.9247 103.501 38.9247 103.501L36.0822 104.447Z" fill="#F9A085"/>
<path d="M37.5899 105.765C37.9424 105.97 38.3283 106.111 38.7299 106.182C38.7974 104.933 38.9249 103.501 38.9249 103.501L36.2124 104.406C36.5388 104.976 37.0152 105.446 37.5899 105.765Z" fill="#F77A55"/>
<path d="M36.71 97.0743C35.9489 97.3957 35.3282 97.977 34.96 98.7135C34.335 99.9572 34.1025 103.44 36.5675 104.805C37.785 105.479 39.1925 105.609 39.855 105.014C40.5175 104.42 40.4475 103.061 40.38 101.942C40.24 99.7259 39.75 96.3679 36.71 97.0743Z" fill="#F9A085"/>
<path d="M34.8947 101.457C35.0347 102.042 34.8472 102.607 34.4772 102.707C34.1072 102.807 33.6947 102.434 33.5547 101.849C33.4147 101.264 33.6022 100.699 33.9722 100.599C34.3422 100.499 34.7547 100.872 34.8947 101.457Z" fill="#F9A085"/>
<path d="M28.7798 180.531C27.7348 181.01 26.6148 180.716 26.1623 180.563L25.4373 182.938C25.4373 182.938 27.7198 183.612 28.9098 182.938L28.7798 180.531Z" fill="#1C155B"/>
<path d="M40.4025 182.977H48.3649C48.6599 182.95 48.7324 182.701 48.6299 182.549C48.4199 182.238 47.4899 182.007 46.4449 181.509C44.6149 181.706 40.7725 180.412 40.4825 179.976C40.32 180.857 40.24 182.947 40.4025 182.977Z" fill="#1C155B"/>
<path d="M56.395 119.482C56.55 119.268 57.0675 118.224 57.0675 118.224C57.0675 118.224 57.6025 116.438 57.49 116.46C57.425 116.475 57.205 116.729 56.9425 117.269C56.7825 117.599 56.6075 118.179 56.4425 118.465C56.1525 118.962 55.83 119.176 55.91 118.982C55.9675 118.84 56.16 118.733 56.34 118.423C56.7675 117.691 57.1425 116.495 56.98 116.52C56.8175 116.545 56.4225 117.366 55.98 118.012C55.7825 118.291 55.2175 118.641 54.8625 118.863C54.8691 118.73 54.8935 118.599 54.935 118.472C54.98 118.331 55.6125 117.497 55.365 117.393C55.1175 117.288 53.615 119.094 53.615 119.094L52.9975 120.141L52.9425 120.181C52.9425 120.181 45.4425 123.111 45.1925 123.031C44.6 122.845 42.5825 117.027 42.5825 117.027L38.3825 117.773C38.32 117.739 42.7975 126.434 43.6325 126.862C44.3675 127.235 52.1725 123.188 53.6325 122.323C55.6525 121.551 56.44 120.631 56.77 120.159C56.945 119.91 57.6225 118.808 57.6225 118.808C57.6225 118.808 57.7675 117.283 57.6575 117.269C57.2875 117.224 57.185 118.661 57.185 118.661C57.185 118.661 56.685 119.338 56.595 119.427C56.3575 119.651 56.395 119.482 56.395 119.482Z" fill="#FBC6B6"/>
<path d="M35.6422 111.951C35.0697 114.369 38.1272 119.761 38.1272 119.761C38.1272 119.761 42.4848 117.654 43.2498 116.746C43.2498 116.746 40.2498 111.814 40.0573 111.491C39.6547 110.794 38.2447 109.357 37.2922 109.62C36.6872 109.787 35.6422 111.951 35.6422 111.951Z" fill="white"/>
<path d="M36.3348 105.989C36.6598 103.77 40.3573 99.2511 38.9298 97.3608C37.7748 95.8337 35.7598 96.2913 34.4748 96.7291C28.6548 98.7189 28.9748 106.004 27.1499 107.143C23.8199 109.208 21.7699 110.493 21.5299 115.145C21.2449 120.659 25.9524 123.477 31.6148 122.126C34.6598 121.402 35.4673 120.41 36.6873 117.55C37.2398 116.261 38.3498 112.237 38.0448 110.272C37.7723 108.514 36.0698 107.775 36.3348 105.989Z" fill="#1C155B"/>
<path d="M38.5473 101.928C38.5473 102.588 38.2973 103.123 38.0123 103.123C37.7273 103.123 37.4773 102.588 37.4773 101.928C37.4773 101.268 37.7273 100.733 38.0123 100.733C38.2973 100.733 38.5473 101.268 38.5473 101.928Z" fill="#F9A085"/>
<path d="M45.8473 152.183L46.1198 141.284C46.169 138.211 45.557 135.164 44.3248 132.347L42.2548 127.621C41.4446 127.908 40.6068 128.111 39.7548 128.228C37.8398 128.449 35.9573 128.228 34.0548 128.006C34.0493 128.07 34.0401 128.134 34.0273 128.198C33.6823 129.804 31.7572 133.381 30.9472 138.274C30.0272 143.826 29.6822 152.131 29.7972 152.782C38.5898 153.175 40.6848 153.491 45.8473 152.183Z" fill="#1C155B"/>
<path d="M170.82 121.763C170.766 121.985 170.682 122.198 170.57 122.398C169.858 123.773 168.208 125.736 168.208 125.736L166.93 122.681C166.93 122.681 167.138 121.721 167.5 120.351C168.745 120.691 169.92 120.89 170.82 121.763Z" fill="#FBC6B6"/>
<path d="M163.508 119.112C163.508 119.112 170.63 122.368 170.86 122.308C171.008 122.266 173.78 117.334 173.81 112.702C173.825 110.563 171.73 107.976 169.395 108.496C168.218 108.745 168.238 109.101 166.498 111.784C164.758 114.468 163.508 119.112 163.508 119.112Z" fill="#6E62DB"/>
<path d="M157.428 177.504C157.428 177.504 157.595 180.474 157.598 180.489C157.66 180.867 157.903 181.797 157.903 182.14C157.903 183.428 152.153 181.048 153.435 180.476C153.553 180.424 154.165 180.033 154.203 179.596C154.263 178.922 154.413 177.554 154.413 177.554L157.428 177.504Z" fill="#F9A085"/>
<path d="M153.45 180.453C154.123 180.655 154.805 180.822 155.495 180.953C156.188 181.053 157.1 180.218 157.59 180.453C158.128 180.703 158.108 182.93 158.108 182.93C158.108 182.93 150.858 183.564 148.818 182.907C148.01 182.635 150.685 181.375 153.45 180.453Z" fill="#F77A55"/>
<path d="M169.208 177.504C169.208 177.504 169.378 180.474 169.378 180.489C169.44 180.867 169.685 181.797 169.685 182.14C169.685 183.428 163.935 181.048 165.218 180.476C165.333 180.424 166.128 179.73 166.165 179.305C166.225 178.628 166.193 177.564 166.193 177.564L169.208 177.504Z" fill="#F9A085"/>
<path d="M165.23 180.453C165.903 180.655 166.585 180.821 167.275 180.952C167.967 181.052 168.882 180.218 169.372 180.453C169.91 180.703 169.932 182.927 169.932 182.927C169.932 182.927 162.647 183.676 160.6 182.904C159.802 182.597 162.467 181.374 165.23 180.453Z" fill="#F77A55"/>
<path d="M167.448 123.408L162.375 115.864C162.355 115.797 162.308 115.663 162.238 115.456C161.988 114.71 161.45 113.148 160.988 111.599V111.584C160.843 111.042 160.535 110.091 160.238 109.181C159.908 108.166 159.488 106.905 159.488 106.694L159.558 106.505C159.781 105.762 159.956 105.006 160.083 104.242C160.14 103.903 160.198 103.08 159.818 103.08C159.223 103.08 159.508 103.901 159.233 104.413C159.057 103.853 158.92 103.283 158.82 102.705L158.72 101.1C158.7 100.978 158.823 100.105 158.405 100.105H158.385C158.01 100.133 158.018 101.075 157.863 102.665C157.813 102.483 157.765 102.262 157.728 102.058C157.705 101.776 157.663 101.496 157.6 101.22C157.675 100.777 157.633 100.076 157.188 100.143C156.965 100.175 156.983 101.153 156.983 101.153C156.983 101.284 156.998 102.317 156.983 102.521C156.938 102.175 156.76 100.697 156.41 100.697C156.123 100.697 156.098 101.095 156.105 101.411C156.105 101.595 156.29 103.197 156.3 103.384C156.163 103.135 156.003 101.73 155.868 101.73C155.303 101.73 155.508 103.734 155.713 104.257C155.741 104.349 155.762 104.443 155.778 104.538C155.862 105.057 156.025 105.56 156.263 106.03C156.615 106.674 157.105 107.696 157.18 107.853C157.233 108.174 157.403 109.323 157.618 110.768C157.708 111.387 157.808 112.064 157.913 112.758C157.933 112.909 158.038 113.392 158.44 115.205C158.988 117.692 159.045 117.794 159.07 117.841C159.32 118.289 164.778 126.176 165.01 126.512L165.148 126.708L167.448 123.408Z" fill="#F9A085"/>
<path d="M158.015 105.816C158.015 105.816 158.425 104.693 159.158 104.691C159.031 104.649 158.896 104.64 158.765 104.665C158.634 104.689 158.511 104.746 158.408 104.831C158.048 105.126 158.015 105.816 158.015 105.816Z" fill="#F77A55"/>
<path d="M168.675 103.65L169.328 108.035C169.328 108.035 166.828 110.157 165.388 109.709C164.173 109.333 165.005 107.645 165.005 107.645C165.005 107.645 165.655 105.302 165.455 104.076C165.255 102.85 168.675 103.65 168.675 103.65Z" fill="#F9A085"/>
<path d="M168.205 104.985C167.315 105.408 166.366 105.694 165.39 105.831C165.493 105.253 165.515 104.664 165.455 104.08C165.363 103.51 166.043 103.377 166.8 103.395C167.8 103.487 168.675 103.645 168.675 103.645L168.8 104.492C168.633 104.691 168.432 104.858 168.205 104.985Z" fill="#F77A55"/>
<path d="M171.82 98.5914C171.923 98.5914 170.835 103.491 169.155 104.334C167.475 105.177 164.968 104.737 164.498 103.417C163.975 101.959 165.875 96.9499 168.248 96.3256C170.62 95.7013 171.82 98.5914 171.82 98.5914Z" fill="#F9A085"/>
<path d="M169.87 94.0918C170.837 94.6968 171.593 95.5836 172.035 96.6313C172.665 96.9497 173.428 97.6262 173.785 99.4867C174.235 101.763 172.635 103.516 170.938 104.046C169.24 104.576 168.955 105.765 168.955 105.765L168.788 104.481C168.788 104.481 169.165 103.364 169.733 102.805C170.3 102.245 169.463 101.432 169.39 100.768C169.333 100.255 169.688 99.2753 169.61 98.4222C169.61 98.4222 168.668 96.9049 167.738 96.5318C166.165 95.8926 168.145 93.0372 169.87 94.0918Z" fill="#1C155B"/>
<path d="M169.155 101.625C168.935 102.193 169.025 102.758 169.355 102.875C169.685 102.993 170.133 102.645 170.355 102.078C170.578 101.51 170.485 100.945 170.155 100.828C169.825 100.71 169.375 101.055 169.155 101.625Z" fill="#F9A085"/>
<path d="M162.892 123.529L153.107 121.835C153.107 121.835 154.222 118.85 154.607 118.85C154.992 118.85 162.005 122.083 162.005 122.083L162.57 123.28L162.892 123.529Z" fill="#FBC6B6"/>
<path d="M167.905 130.652C167.905 130.652 168.88 135.662 168.483 139.462C168.085 143.263 168.055 156.757 168.055 156.757L169.573 178.349L165.97 178.433C165.97 178.433 161.7 156.851 161.78 157.403C161.86 157.955 160.348 142.208 160.348 142.208L165.438 130.177L167.905 130.652Z" fill="#1C155B"/>
<path d="M166.95 130.414C166.95 130.414 167.588 134.926 166.79 136.906C165.993 138.886 159.967 158.297 159.887 159.881C159.807 161.465 157.805 178.961 157.805 178.961L153.615 178.836L152.71 159.383L154.607 134.934L156.45 128.753L166.95 130.414Z" fill="#1C155B"/>
<path d="M169.32 108.043C169.32 108.043 168.288 108.766 167.32 108.681C166.353 108.596 164.995 107.651 164.995 107.651L165.185 106.966C165.185 106.966 167.685 106.578 167.74 106.618C167.795 106.658 169.32 108.043 169.32 108.043Z" fill="#F9A085"/>
<path d="M158.32 118.714C158.32 118.714 154.62 122.419 152.947 121.788C151.275 121.156 150.587 118.99 154.663 115.819C158.32 112.991 158.32 118.714 158.32 118.714Z" fill="#FBC6B6"/>
<path d="M155.82 123.281C156.37 120.107 160.355 110.222 160.673 108.402C160.828 107.516 162.978 107.496 165.025 107.613C167.188 107.735 169.335 108.026 169.335 108.026C169.335 108.026 171.25 108.359 172.085 109.198C172.92 110.036 173.153 112.351 171.943 116.752C170.985 120.234 169.8 122.132 169.215 124.661C169.095 125.509 168.995 126.348 168.86 127.325C168.643 131.108 168.86 136.103 168.86 136.103C168.86 136.103 158.438 138.399 154.54 134.916C154.54 134.926 155.25 126.547 155.82 123.281Z" fill="#948BE4"/>
<path d="M153.155 116.463C153.155 116.463 157.245 120.047 157.483 120.047C157.638 120.047 163.318 115.61 164.63 111.963C165.355 109.946 163.835 107.693 162.098 107.7C160.893 107.7 160.348 108.034 157.973 110.17C155.598 112.307 153.155 116.463 153.155 116.463Z" fill="#6E62DB"/>
<path d="M191.57 185.143H4.06978C3.9238 185.144 3.77919 185.115 3.64423 185.06C3.50927 185.004 3.38662 184.922 3.28328 184.819C3.17994 184.716 3.09795 184.594 3.04201 184.459C2.98607 184.324 2.95728 184.179 2.95728 184.033C2.95728 183.738 3.07449 183.455 3.28313 183.247C3.49176 183.038 3.77473 182.921 4.06978 182.921H191.57C191.865 182.921 192.148 183.038 192.357 183.247C192.565 183.455 192.683 183.738 192.683 184.033C192.683 184.179 192.654 184.324 192.598 184.459C192.542 184.594 192.46 184.716 192.357 184.819C192.253 184.922 192.131 185.004 191.996 185.06C191.861 185.115 191.716 185.144 191.57 185.143Z" fill="#1C155B"/>
</svg>
